HIERARCHY
ROOT Hips
{
	OFFSET 0.053599 88.859886 3.107447
	CHANNELS 6 Xposition Yposition Zposition Zrotation Yrotation Xrotation 
	JOINT Spine
	{
		OFFSET -0.000000 8.814246 -2.080107
		CHANNELS 3 Zrotation Yrotation Xrotation
		JOINT Spine1
		{
			OFFSET 0.000000 8.844141 0.000000
			CHANNELS 3 Zrotation Yrotation Xrotation
			JOINT Spine2
			{
				OFFSET -0.000000 11.682268 0.000000
				CHANNELS 3 Zrotation Yrotation Xrotation
				JOINT Spine3
				{
					OFFSET 0.000000 11.746700 0.000000
					CHANNELS 3 Zrotation Yrotation Xrotation
					JOINT Neck
					{
						OFFSET -0.000000 17.658264 -0.000000
						CHANNELS 3 Zrotation Yrotation Xrotation
						JOINT Neck1
						{
							OFFSET -0.000000 5.101515 -0.000000
							CHANNELS 3 Zrotation Yrotation Xrotation
							JOINT Head
							{
								OFFSET 0.000000 5.101515 0.000000
								CHANNELS 3 Zrotation Yrotation Xrotation
								JOINT HeadEnd
								{
									OFFSET 0.000000 11.655085 0.000000
									CHANNELS 3 Zrotation Yrotation Xrotation
									End Site
									{
										OFFSET 0.000000 0.000000 0.000000
									}
								}
							}
						}
					}
					JOINT RightShoulder
					{
						OFFSET -2.625389 11.175210 0.000000
						CHANNELS 3 Zrotation Yrotation Xrotation
						JOINT RightArm
						{
							OFFSET -0.000000 10.434715 -0.000000
							CHANNELS 3 Zrotation Yrotation Xrotation
							JOINT RightForeArm
							{
								OFFSET -0.000000 29.628420 0.000000
								CHANNELS 3 Zrotation Yrotation Xrotation
								JOINT RightHand
								{
									OFFSET -0.000000 22.857611 0.000000
									CHANNELS 3 Zrotation Yrotation Xrotation
									JOINT RightHandThumb1
									{
										OFFSET -2.867323 3.959563 2.944291
										CHANNELS 3 Zrotation Yrotation Xrotation
										JOINT RightHandThumb2
										{
											OFFSET 0.000000 3.350399 0.000000
											CHANNELS 3 Zrotation Yrotation Xrotation
											JOINT RightHandThumb3
											{
												OFFSET 0.000000 3.756509 -0.000000
												CHANNELS 3 Zrotation Yrotation Xrotation
												JOINT RightHandThumb4
												{
													OFFSET 0.000000 3.147345 0.000000
													CHANNELS 3 Zrotation Yrotation Xrotation
													End Site
													{
														OFFSET 0.000000 0.000000 0.000000
													}
												}
											}
										}
									}
									JOINT RightHandIndex1
									{
										OFFSET -0.086752 10.030893 2.345280
										CHANNELS 3 Zrotation Yrotation Xrotation
										JOINT RightHandIndex2
										{
											OFFSET -0.000000 4.061090 0.000000
											CHANNELS 3 Zrotation Yrotation Xrotation
											JOINT RightHandIndex3
											{
												OFFSET -0.000000 3.248873 0.000000
												CHANNELS 3 Zrotation Yrotation Xrotation
												JOINT RightHandIndex4
												{
													OFFSET 0.000000 2.639709 -0.000000
													CHANNELS 3 Zrotation Yrotation Xrotation
													End Site
													{
														OFFSET 0.000000 0.000000 0.000000
													}
												}
											}
										}
									}
									JOINT RightHandMiddle1
									{
										OFFSET 0.104102 9.502952 0.006768
										CHANNELS 3 Zrotation Yrotation Xrotation
										JOINT RightHandMiddle2
										{
											OFFSET 0.000000 4.568727 0.000000
											CHANNELS 3 Zrotation Yrotation Xrotation
											JOINT RightHandMiddle3
											{
												OFFSET 0.000000 3.654981 -0.000000
												CHANNELS 3 Zrotation Yrotation Xrotation
												JOINT RightHandMiddle4
												{
													OFFSET -0.000000 2.741236 -0.000000
													CHANNELS 3 Zrotation Yrotation Xrotation
													End Site
													{
														OFFSET 0.000000 0.000000 0.000000
													}
												}
											}
										}
									}
									JOINT RightHandRing1
									{
										OFFSET 0.086752 8.921708 -2.267442
										CHANNELS 3 Zrotation Yrotation Xrotation
										JOINT RightHandRing2
										{
											OFFSET -0.000000 4.061090 0.000000
											CHANNELS 3 Zrotation Yrotation Xrotation
											JOINT RightHandRing3
											{
												OFFSET 0.000000 3.654981 -0.000000
												CHANNELS 3 Zrotation Yrotation Xrotation
												JOINT RightHandRing4
												{
													OFFSET 0.000000 2.741236 -0.000000
													CHANNELS 3 Zrotation Yrotation Xrotation
													End Site
													{
														OFFSET 0.000000 0.000000 0.000000
													}
												}
											}
										}
									}
									JOINT RightHandPinky1
									{
										OFFSET -0.173504 7.976997 -4.467199
										CHANNELS 3 Zrotation Yrotation Xrotation
										JOINT RightHandPinky2
										{
											OFFSET 0.000000 3.350399 -0.000000
											CHANNELS 3 Zrotation Yrotation Xrotation
											JOINT RightHandPinky3
											{
												OFFSET -0.000000 2.842763 0.000000
												CHANNELS 3 Zrotation Yrotation Xrotation
												JOINT RightHandPinky4
												{
													OFFSET -0.000000 2.639709 0.000000
													CHANNELS 3 Zrotation Yrotation Xrotation
													End Site
													{
														OFFSET 0.000000 0.000000 0.000000
													}
												}
											}
										}
									}
									JOINT RightForeArmEnd
									{
										OFFSET 0.000000 0.000000 0.000000
										CHANNELS 3 Zrotation Yrotation Xrotation
										End Site
										{
											OFFSET 0.000000 0.000000 0.000000
										}
									}
								}
								JOINT RightArmEnd
								{
									OFFSET 0.000000 0.000000 0.000000
									CHANNELS 3 Zrotation Yrotation Xrotation
									End Site
									{
										OFFSET 0.000000 0.000000 0.000000
									}
								}
							}
						}
					}
					JOINT LeftShoulder
					{
						OFFSET 2.625389 11.175210 0.000000
						CHANNELS 3 Zrotation Yrotation Xrotation
						JOINT LeftArm
						{
							OFFSET 0.000000 10.813635 -0.000000
							CHANNELS 3 Zrotation Yrotation Xrotation
							JOINT LeftForeArm
							{
								OFFSET 0.000000 28.724781 0.000000
								CHANNELS 3 Zrotation Yrotation Xrotation
								JOINT LeftHand
								{
									OFFSET 0.644384 25.716167 -0.328871
									CHANNELS 3 Zrotation Yrotation Xrotation
									JOINT LeftHandThumb1
									{
										OFFSET 2.867323 3.959563 2.944291
										CHANNELS 3 Zrotation Yrotation Xrotation
										JOINT LeftHandThumb2
										{
											OFFSET 0.000000 3.350399 0.000000
											CHANNELS 3 Zrotation Yrotation Xrotation
											JOINT LeftHandThumb3
											{
												OFFSET -0.000000 3.756509 0.000000
												CHANNELS 3 Zrotation Yrotation Xrotation
												JOINT LeftHandThumb4
												{
													OFFSET -0.000000 3.100000 0.000000
													CHANNELS 3 Zrotation Yrotation Xrotation
													End Site
													{
														OFFSET 0.000000 0.000000 0.000000
													}
												}
											}
										}
									}
									JOINT LeftHandIndex1
									{
										OFFSET 0.086752 10.030893 2.345280
										CHANNELS 3 Zrotation Yrotation Xrotation
										JOINT LeftHandIndex2
										{
											OFFSET -0.000000 4.061090 -0.000000
											CHANNELS 3 Zrotation Yrotation Xrotation
											JOINT LeftHandIndex3
											{
												OFFSET 0.000000 3.248873 -0.000000
												CHANNELS 3 Zrotation Yrotation Xrotation
												JOINT LeftHandIndex4
												{
													OFFSET 0.000000 2.639709 -0.000000
													CHANNELS 3 Zrotation Yrotation Xrotation
													End Site
													{
														OFFSET 0.000000 0.000000 0.000000
													}
												}
											}
										}
									}
									JOINT LeftHandMiddle1
									{
										OFFSET -0.104102 9.502952 0.006768
										CHANNELS 3 Zrotation Yrotation Xrotation
										JOINT LeftHandMiddle2
										{
											OFFSET -0.000000 4.568727 -0.000000
											CHANNELS 3 Zrotation Yrotation Xrotation
											JOINT LeftHandMiddle3
											{
												OFFSET 0.000000 3.654981 0.000000
												CHANNELS 3 Zrotation Yrotation Xrotation
												JOINT LeftHandMiddle4
												{
													OFFSET 0.000000 2.741236 -0.000000
													CHANNELS 3 Zrotation Yrotation Xrotation
													End Site
													{
														OFFSET 0.000000 0.000000 0.000000
													}
												}
											}
										}
									}
									JOINT LeftHandRing1
									{
										OFFSET -0.086752 8.921708 -2.267442
										CHANNELS 3 Zrotation Yrotation Xrotation
										JOINT LeftHandRing2
										{
											OFFSET 0.000000 4.061090 0.000000
											CHANNELS 3 Zrotation Yrotation Xrotation
											JOINT LeftHandRing3
											{
												OFFSET 0.000000 3.654981 0.000000
												CHANNELS 3 Zrotation Yrotation Xrotation
												JOINT LeftHandRing4
												{
													OFFSET 0.000000 2.741236 0.000000
													CHANNELS 3 Zrotation Yrotation Xrotation
													End Site
													{
														OFFSET 0.000000 0.000000 0.000000
													}
												}
											}
										}
									}
									JOINT LeftHandPinky1
									{
										OFFSET 0.173504 7.976997 -4.467199
										CHANNELS 3 Zrotation Yrotation Xrotation
										JOINT LeftHandPinky2
										{
											OFFSET -0.000000 3.350399 -0.000000
											CHANNELS 3 Zrotation Yrotation Xrotation
											JOINT LeftHandPinky3
											{
												OFFSET 0.000000 2.842763 0.000000
												CHANNELS 3 Zrotation Yrotation Xrotation
												JOINT LeftHandPinky4
												{
													OFFSET -0.000000 2.639709 -0.000000
													CHANNELS 3 Zrotation Yrotation Xrotation
													End Site
													{
														OFFSET 0.000000 0.000000 0.000000
													}
												}
											}
										}
									}
									JOINT LeftForeArmEnd
									{
										OFFSET 0.000000 0.000000 0.000000
										CHANNELS 3 Zrotation Yrotation Xrotation
										End Site
										{
											OFFSET 0.000000 0.000000 0.000000
										}
									}
								}
								JOINT LeftArmEnd
								{
									OFFSET 0.000000 0.000000 0.000000
									CHANNELS 3 Zrotation Yrotation Xrotation
									End Site
									{
										OFFSET 0.000000 0.000000 0.000000
									}
								}
							}
						}
					}
				}
			}
		}
	}
	JOINT RightUpLeg
	{
		OFFSET -11.289943 0.000000 0.000000
		CHANNELS 3 Zrotation Yrotation Xrotation
		JOINT RightLeg
		{
			OFFSET 0.000000 -38.200325 0.000000
			CHANNELS 3 Zrotation Yrotation Xrotation
			JOINT RightFoot
			{
				OFFSET -0.000000 -39.900856 -0.000000
				CHANNELS 3 Zrotation Yrotation Xrotation
				JOINT RightToeBase
				{
					OFFSET 0.000000 0.000000 15.261641
					CHANNELS 3 Zrotation Yrotation Xrotation
					JOINT RightToeBaseEnd
					{
						OFFSET 0.000000 0.000000 7.370709
						CHANNELS 3 Zrotation Yrotation Xrotation
						End Site
						{
							OFFSET 0.000000 0.000000 0.000000
						}
					}
				}
				JOINT RightLegEnd
				{
					OFFSET 0.000000 0.000000 0.000000
					CHANNELS 3 Zrotation Yrotation Xrotation
					End Site
					{
						OFFSET 0.000000 0.000000 0.000000
					}
				}
			}
			JOINT RightUpLegEnd
			{
				OFFSET 0.000000 0.000000 0.000000
				CHANNELS 3 Zrotation Yrotation Xrotation
				End Site
				{
					OFFSET 0.000000 0.000000 0.000000
				}
			}
		}
	}
	JOINT LeftUpLeg
	{
		OFFSET 11.315661 -0.000000 0.000000
		CHANNELS 3 Zrotation Yrotation Xrotation
		JOINT LeftLeg
		{
			OFFSET -0.000000 -38.200325 -0.000000
			CHANNELS 3 Zrotation Yrotation Xrotation
			JOINT LeftFoot
			{
				OFFSET 0.000000 -39.900856 -0.000000
				CHANNELS 3 Zrotation Yrotation Xrotation
				JOINT LeftToeBase
				{
					OFFSET -0.000000 -0.000000 15.261641
					CHANNELS 3 Zrotation Yrotation Xrotation
					JOINT LeftToeBaseEnd
					{
						OFFSET 0.000000 -0.000000 7.539996
						CHANNELS 3 Zrotation Yrotation Xrotation
						End Site
						{
							OFFSET 0.000000 0.000000 0.000000
						}
					}
				}
				JOINT LeftLegEnd
				{
					OFFSET 0.000000 0.000000 0.000000
					CHANNELS 3 Zrotation Yrotation Xrotation
					End Site
					{
						OFFSET 0.000000 0.000000 0.000000
					}
				}
			}
			JOINT LeftUpLegEnd
			{
				OFFSET 0.000000 0.000000 0.000000
				CHANNELS 3 Zrotation Yrotation Xrotation
				End Site
				{
					OFFSET 0.000000 0.000000 0.000000
				}
			}
		}
	}
}
MOTION
Frames: 4
Frame Time: 0.016667
0.053599 88.859886 3.107447 0.490481 0.055862 -6.497332 0.023754 -0.000539 5.886370 -1.012250 0.067046 0.861970 0.478071 -2.416792 3.829567 0.155030 -0.780500 1.929224 2.330515 0.848112 5.016849 0.371683 2.117863 -3.221864 -0.714533 -0.852149 -18.222401 0.000000 0.000000 0.000000 92.418694 -0.394880 9.707912 65.456573 -33.431271 5.091406 -0.130291 12.440493 22.353239 6.882370 13.743960 -6.458578 10.637670 -1.840800 39.870983 0.000000 0.000000 -25.919998 0.000000 0.000000 -18.000004 0.000000 0.000000 0.000000 12.845482 -0.000000 -9.527125 8.991838 0.000000 0.000000 8.991838 0.000000 0.000000 0.000000 0.000000 0.000000 11.286146 -0.000000 -11.044980 7.900302 0.000000 0.000000 7.900302 0.000000 0.000000 0.000000 0.000000 0.000000 11.199185 0.000000 -11.348525 7.839428 0.000000 0.000000 7.839428 0.000000 0.000000 0.000000 0.000000 0.000000 10.416969 0.000000 -12.591636 7.291878 0.000000 0.000000 7.291878 0.000000 0.000000 0.000000 0.000000 0.000000 0.000000 0.000000 0.000000 0.000000 0.000000 0.000000 -90.370071 0.051974 5.208683 -71.842018 19.306828 -7.574249 -0.664994 -8.642401 40.885647 -0.139946 -25.486511 -15.477552 -11.236528 1.888869 39.607231 0.000000 0.000000 -27.360001 0.000000 0.000000 -18.999998 0.000000 0.000000 0.000000 -16.692022 0.000000 -11.498048 -11.684413 0.000000 0.000000 -11.684413 0.000000 0.000000 0.000000 0.000000 0.000000 -15.977510 0.000000 -11.317391 -11.184259 0.000000 0.000000 -11.184259 0.000000 0.000000 0.000000 0.000000 0.000000 -18.180992 -0.000000 -10.528083 -12.726697 0.000000 0.000000 -12.726697 0.000000 0.000000 0.000000 0.000000 0.000000 -19.065912 -0.000000 -9.698054 -13.346139 0.000000 0.000000 -13.346139 0.000000 0.000000 0.000000 0.000000 0.000000 0.000000 0.000000 0.000000 0.000000 0.000000 0.000000 -1.045058 -10.518975 11.869204 -0.078405 -0.635030 3.758801 -2.197730 -7.901679 18.681496 -0.890004 0.828132 -18.870453 0.000000 0.000000 0.000000 0.000000 0.000000 0.000000 0.000000 0.000000 0.000000 -1.784023 -6.543907 7.474547 0.053202 0.398207 7.545935 3.843466 -1.785134 17.966772 0.194973 -0.390531 -20.817129 0.000000 0.000000 0.000000 0.000000 0.000000 0.000000 0.000000 0.000000 0.000000 
0.081417 88.237732 3.018885 -0.207813 -0.221179 -7.901545 1.332618 -0.197539 6.812930 -1.147781 0.171219 2.651698 0.650972 -1.683725 2.828483 -0.735243 -0.286303 3.385421 2.340247 0.945179 2.944507 0.932482 2.313666 -3.676153 -0.715931 -1.087311 -17.786833 0.000000 0.000000 0.000000 91.945480 -0.536055 9.630702 66.414490 -31.434557 4.518350 -0.202486 13.744351 23.389915 6.827121 12.282935 -5.262870 10.349063 -1.810435 39.889107 -0.000000 0.000026 -25.363756 0.000011 0.000044 -17.433994 0.000000 -0.000003 -0.000020 12.128208 0.109502 -8.970453 8.537885 -0.018697 -0.222490 8.639379 0.008862 -0.217040 -0.000026 0.000028 -0.000023 10.881837 0.038785 -10.281809 7.763858 -0.015437 -0.070988 7.873699 0.002708 -0.063294 0.000019 0.000020 0.000014 10.744013 -0.096574 -10.425367 7.753109 0.052012 0.021999 7.776326 0.007366 0.019272 -0.000015 -0.000020 0.000010 10.082355 -0.275360 -11.969210 7.415730 0.146569 -0.030045 7.320229 0.052853 -0.000248 0.000103 -0.000005 0.000007 0.000000 0.000000 0.000000 0.000000 0.000000 0.000000 -88.794876 0.141613 6.331145 -71.359184 19.357750 -5.507153 -1.243390 -10.439712 40.667309 -0.040077 -23.638927 -15.006237 -10.858006 1.813569 39.631363 0.000004 0.000019 -26.710590 -0.000029 -0.000026 -18.373569 -0.000188 0.000002 0.000017 -16.447556 0.149980 -9.641074 -11.204878 0.009524 0.285087 -11.527936 0.034328 0.249829 0.000011 0.000143 -0.000006 -15.805637 0.073169 -10.350817 -11.003151 -0.004682 0.106405 -10.817548 0.013131 0.094944 -0.000245 -0.000046 -0.000037 -17.595865 -0.051152 -10.699557 -12.224575 0.027199 -0.184331 -12.095778 -0.013143 -0.118115 0.000412 0.000011 0.000006 -18.234108 -0.235236 -11.487019 -12.702380 0.031092 -0.395568 -12.679232 -0.041594 -0.334499 -0.000182 -0.000011 -0.000033 0.000000 0.000000 0.000000 0.000000 0.000000 0.000000 -0.757642 -10.278256 12.064798 -0.022280 -0.629670 4.756129 -2.455403 -8.666614 19.086864 -0.863828 0.857045 -18.772144 0.000000 0.000000 0.000000 0.000000 0.000000 0.000000 0.000000 0.000000 0.000000 -1.374811 -5.731240 8.654937 0.050907 0.424191 6.985956 3.564687 -0.650593 18.530855 0.313569 -0.493600 -20.947008 0.000000 0.000000 0.000000 0.000000 0.000000 0.000000 0.000000 0.000000 0.000000 
0.078524 88.221062 2.992453 -0.191920 -0.265590 -7.980487 1.278060 -0.176416 6.847570 -1.072443 0.162635 2.723598 0.557100 -1.687432 2.866358 -0.711020 -0.307976 3.406835 2.466777 0.841956 3.091861 0.903834 2.249905 -3.555982 -0.734445 -1.076772 -17.850164 0.000000 0.000000 0.000000 91.971794 -0.529500 9.653683 66.354507 -31.382847 4.721683 -0.226460 13.750658 23.107725 6.854095 12.150299 -5.436565 10.315581 -1.806334 39.908504 -0.000002 0.000045 -25.257298 0.000015 0.000038 -17.371756 0.000012 0.000004 -0.000033 12.077511 0.113567 -8.900487 8.481675 -0.023360 -0.203012 8.575593 0.005133 -0.197995 -0.000005 0.000042 -0.000017 10.837186 0.039310 -10.236494 7.711605 -0.017560 -0.061720 7.810470 0.000630 -0.055216 0.000015 0.000011 0.000002 10.756956 -0.096273 -10.426488 7.701791 0.054806 0.008392 7.713616 0.010366 0.009284 -0.000021 -0.000028 -0.000003 10.137324 -0.277252 -12.023053 7.396618 0.154939 -0.057945 7.297718 0.058281 -0.023344 0.000121 0.000006 0.000004 0.000000 0.000000 0.000000 0.000000 0.000000 0.000000 -88.811615 0.127827 6.321232 -71.257355 19.510065 -5.374325 -1.195079 -10.166263 40.520565 0.119707 -23.566349 -15.453903 -10.829622 1.806904 39.646999 0.000016 0.000023 -26.628931 -0.000037 -0.000013 -18.314896 -0.000295 0.000013 -0.000017 -16.315069 0.155963 -9.728631 -11.150209 0.003802 0.254756 -11.462344 0.029014 0.219259 0.000025 0.000085 0.000003 -15.648847 0.075187 -10.466402 -10.936760 -0.006668 0.092128 -10.755801 0.010987 0.083588 -0.000252 -0.000040 -0.000057 -17.412418 -0.048615 -10.871329 -12.145841 0.030678 -0.164975 -12.022821 -0.010424 -0.105216 0.000475 0.000017 0.000011 -18.067047 -0.224642 -11.721049 -12.648547 0.041023 -0.335358 -12.631862 -0.033154 -0.290537 -0.000158 0.000008 -0.000051 0.000000 0.000000 0.000000 0.000000 0.000000 0.000000 -0.769870 -10.321064 12.076658 -0.021758 -0.627892 4.767914 -2.446238 -8.532075 19.063553 -0.850247 0.860283 -18.787176 0.000000 0.000000 0.000000 0.000000 0.000000 0.000000 0.000000 0.000000 0.000000 -1.327628 -5.617757 8.694796 0.049157 0.416913 6.945496 3.541067 -0.716909 18.567133 0.318952 -0.494973 -20.953594 0.000000 0.000000 0.000000 0.000000 0.000000 0.000000 0.000000 0.000000 0.000000 
0.077404 88.210350 2.972515 -0.179834 -0.320137 -8.053123 1.237224 -0.154447 6.883565 -1.015175 0.154791 2.784097 0.502942 -1.680985 2.907046 -0.677448 -0.321611 3.397119 2.510506 0.766355 3.182872 0.886180 2.187248 -3.482504 -0.735610 -1.069944 -17.902266 0.000000 0.000000 0.000000 92.007011 -0.517142 9.692245 66.311325 -31.231291 4.842614 -0.251932 13.803847 22.878174 6.873629 12.081339 -5.543993 10.308459 -1.806246 39.912354 0.000000 0.000045 -25.217178 0.000013 0.000040 -17.354542 0.000012 0.000004 -0.000033 12.041418 0.114805 -8.903617 8.428747 -0.025700 -0.191016 8.509571 0.003343 -0.186097 -0.000005 0.000042 -0.000018 10.807356 0.039038 -10.249905 7.656718 -0.018600 -0.056055 7.750554 -0.000522 -0.050203 0.000015 0.000015 0.000004 10.775033 -0.095243 -10.452985 7.655452 0.055912 0.001426 7.663712 0.011993 0.004213 -0.000019 -0.000002 -0.000002 10.170109 -0.275602 -12.059697 7.380270 0.157809 -0.067591 7.279230 0.059400 -0.030979 0.000129 0.000005 -0.000004 0.000000 0.000000 0.000000 0.000000 0.000000 0.000000 -88.816391 0.129192 6.318884 -71.244247 19.614542 -5.339841 -1.164174 -10.031984 40.392559 0.076163 -23.324598 -15.685829 -10.821955 1.805787 39.648907 0.000015 0.000023 -26.604700 -0.000041 -0.000014 -18.295731 -0.000399 0.000011 0.000005 -16.203871 0.157131 -9.752075 -11.072927 -0.000790 0.232183 -11.377361 0.025062 0.195386 0.000023 0.000038 0.000003 -15.505326 0.075458 -10.523316 -10.853529 -0.008430 0.081505 -10.675618 0.009255 0.074720 -0.000259 -0.000041 -0.000072 -17.230911 -0.045756 -10.976480 -12.051552 0.033168 -0.150687 -11.932790 -0.008509 -0.095275 0.000455 0.000017 0.000011 -17.893957 -0.216486 -11.884056 -12.574430 0.047880 -0.292714 -12.560633 -0.027584 -0.256722 -0.000148 0.000008 -0.000052 0.000000 0.000000 0.000000 0.000000 0.000000 0.000000 -0.791898 -10.309070 12.085951 -0.021373 -0.625550 4.786685 -2.446390 -8.418642 19.061380 -0.841754 0.860575 -18.802319 0.000000 0.000000 0.000000 0.000000 0.000000 0.000000 0.000000 0.000000 0.000000 -1.306089 -5.508794 8.743155 0.046797 0.408705 6.912166 3.539410 -0.700076 18.591143 0.321903 -0.494398 -20.951426 0.000000 0.000000 0.000000 0.000000 0.000000 0.000000 0.000000 0.000000 0.000000 
